<mxfile host="Electron" modified="2023-10-01T01:55:16.916Z" agent="Mozilla/5.0 (Windows NT 10.0; Win64; x64) AppleWebKit/537.36 (KHTML, like Gecko) draw.io/21.2.8 Chrome/112.0.5615.165 Electron/24.2.0 Safari/537.36" etag="irBShr_v-DB4hfYx-b-9" version="21.2.8" type="device">
  <diagram name="PÃ¡gina-1" id="nS9otRSdnI5hJtbakz7M">
    <mxGraphModel dx="1509" dy="888" grid="1" gridSize="10" guides="1" tooltips="1" connect="1" arrows="1" fold="1" page="1" pageScale="1" pageWidth="827" pageHeight="1169" math="0" shadow="0">
      <root>
        <mxCell id="0" />
        <mxCell id="1" parent="0" />
        <mxCell id="w8ymRbTC4XCtCmgdDUyY-7" value="Camionero&lt;br&gt;" style="shape=umlActor;verticalLabelPosition=bottom;verticalAlign=top;html=1;outlineConnect=0;" parent="1" vertex="1">
          <mxGeometry x="20" y="200" width="30" height="60" as="geometry" />
        </mxCell>
        <mxCell id="w8ymRbTC4XCtCmgdDUyY-12" value="Cambio de estado envio" style="ellipse;whiteSpace=wrap;html=1;" parent="1" vertex="1">
          <mxGeometry x="480" y="190" width="120" height="80" as="geometry" />
        </mxCell>
        <mxCell id="w8ymRbTC4XCtCmgdDUyY-20" value="&amp;lt;&amp;lt;extends&amp;gt;&amp;gt;" style="html=1;verticalAlign=bottom;labelBackgroundColor=none;endArrow=open;endFill=0;dashed=1;rounded=0;" parent="1" source="w8ymRbTC4XCtCmgdDUyY-27" target="w8ymRbTC4XCtCmgdDUyY-12" edge="1">
          <mxGeometry width="160" relative="1" as="geometry">
            <mxPoint x="454.0005917463202" y="512.5434977448351" as="sourcePoint" />
            <mxPoint x="517.962725019177" y="489.995508816761" as="targetPoint" />
          </mxGeometry>
        </mxCell>
        <mxCell id="w8ymRbTC4XCtCmgdDUyY-25" value="" style="endArrow=none;html=1;rounded=0;" parent="1" source="w8ymRbTC4XCtCmgdDUyY-7" target="w8ymRbTC4XCtCmgdDUyY-28" edge="1">
          <mxGeometry width="50" height="50" relative="1" as="geometry">
            <mxPoint x="150" y="250" as="sourcePoint" />
            <mxPoint x="220" y="110" as="targetPoint" />
          </mxGeometry>
        </mxCell>
        <mxCell id="w8ymRbTC4XCtCmgdDUyY-27" value="Viisualizar el envio" style="ellipse;whiteSpace=wrap;html=1;" parent="1" vertex="1">
          <mxGeometry x="220" y="190" width="120" height="80" as="geometry" />
        </mxCell>
        <mxCell id="w8ymRbTC4XCtCmgdDUyY-30" value="" style="endArrow=none;html=1;rounded=0;" parent="1" source="w8ymRbTC4XCtCmgdDUyY-7" target="w8ymRbTC4XCtCmgdDUyY-27" edge="1">
          <mxGeometry width="50" height="50" relative="1" as="geometry">
            <mxPoint x="350" y="320" as="sourcePoint" />
            <mxPoint x="400" y="270" as="targetPoint" />
          </mxGeometry>
        </mxCell>
        <mxCell id="w8ymRbTC4XCtCmgdDUyY-32" value="Visualizar el destino" style="ellipse;whiteSpace=wrap;html=1;" parent="1" vertex="1">
          <mxGeometry x="220" y="310" width="120" height="80" as="geometry" />
        </mxCell>
        <mxCell id="w8ymRbTC4XCtCmgdDUyY-33" value="" style="endArrow=none;html=1;rounded=0;" parent="1" source="w8ymRbTC4XCtCmgdDUyY-7" target="w8ymRbTC4XCtCmgdDUyY-32" edge="1">
          <mxGeometry width="50" height="50" relative="1" as="geometry">
            <mxPoint x="350" y="320" as="sourcePoint" />
            <mxPoint x="400" y="270" as="targetPoint" />
          </mxGeometry>
        </mxCell>
        <mxCell id="XhrBIPnR7uGEBVEJ_C42-1" value="Operario" style="shape=umlActor;verticalLabelPosition=bottom;verticalAlign=top;html=1;outlineConnect=0;" parent="1" vertex="1">
          <mxGeometry x="20" y="735" width="30" height="60" as="geometry" />
        </mxCell>
        <mxCell id="XhrBIPnR7uGEBVEJ_C42-4" value="" style="endArrow=none;html=1;rounded=0;" parent="1" source="XhrBIPnR7uGEBVEJ_C42-1" target="XhrBIPnR7uGEBVEJ_C42-6" edge="1">
          <mxGeometry width="50" height="50" relative="1" as="geometry">
            <mxPoint x="200" y="790" as="sourcePoint" />
            <mxPoint x="270" y="650" as="targetPoint" />
          </mxGeometry>
        </mxCell>
        <mxCell id="XhrBIPnR7uGEBVEJ_C42-6" value="Gestion de Producto" style="ellipse;whiteSpace=wrap;html=1;" parent="1" vertex="1">
          <mxGeometry x="210" y="600" width="120" height="80" as="geometry" />
        </mxCell>
        <mxCell id="XhrBIPnR7uGEBVEJ_C42-7" value="" style="endArrow=none;html=1;rounded=0;" parent="1" source="XhrBIPnR7uGEBVEJ_C42-1" target="XhrBIPnR7uGEBVEJ_C42-5" edge="1">
          <mxGeometry width="50" height="50" relative="1" as="geometry">
            <mxPoint x="400" y="860" as="sourcePoint" />
            <mxPoint x="450" y="810" as="targetPoint" />
          </mxGeometry>
        </mxCell>
        <mxCell id="J1Hf3Oc52KjEJoIH542O-1" value="Usuario Camionero" style="swimlane;whiteSpace=wrap;html=1;" parent="1" vertex="1">
          <mxGeometry x="70" y="50" width="640" height="380" as="geometry" />
        </mxCell>
        <mxCell id="w8ymRbTC4XCtCmgdDUyY-28" value="Visualizar camion asignado" style="ellipse;whiteSpace=wrap;html=1;" parent="J1Hf3Oc52KjEJoIH542O-1" vertex="1">
          <mxGeometry x="150" y="30" width="120" height="80" as="geometry" />
        </mxCell>
        <mxCell id="J1Hf3Oc52KjEJoIH542O-2" value="Usuario Camionero" style="swimlane;whiteSpace=wrap;html=1;" parent="1" vertex="1">
          <mxGeometry x="70" y="450" width="760" height="730" as="geometry" />
        </mxCell>
        <mxCell id="e7WYedEtJp9jdQIq0A-c-8" value="Asignar producto a lote" style="ellipse;whiteSpace=wrap;html=1;" vertex="1" parent="J1Hf3Oc52KjEJoIH542O-2">
          <mxGeometry x="135" y="500" width="120" height="80" as="geometry" />
        </mxCell>
        <mxCell id="scm1Mmv4SYqOX-3d9spi-7" value="Alta" style="ellipse;whiteSpace=wrap;html=1;" parent="J1Hf3Oc52KjEJoIH542O-2" vertex="1">
          <mxGeometry x="350" y="40" width="120" height="80" as="geometry" />
        </mxCell>
        <mxCell id="scm1Mmv4SYqOX-3d9spi-9" value="Baja" style="ellipse;whiteSpace=wrap;html=1;" parent="J1Hf3Oc52KjEJoIH542O-2" vertex="1">
          <mxGeometry x="560" y="220" width="120" height="80" as="geometry" />
        </mxCell>
        <mxCell id="scm1Mmv4SYqOX-3d9spi-1" value="Alta" style="ellipse;whiteSpace=wrap;html=1;" parent="J1Hf3Oc52KjEJoIH542O-2" vertex="1">
          <mxGeometry x="350" y="290" width="110" height="80" as="geometry" />
        </mxCell>
        <mxCell id="scm1Mmv4SYqOX-3d9spi-8" value="Modificacion" style="ellipse;whiteSpace=wrap;html=1;" parent="J1Hf3Oc52KjEJoIH542O-2" vertex="1">
          <mxGeometry x="560" y="120" width="120" height="80" as="geometry" />
        </mxCell>
        <mxCell id="e7WYedEtJp9jdQIq0A-c-10" value="Visualizar Producto" style="ellipse;whiteSpace=wrap;html=1;" vertex="1" parent="J1Hf3Oc52KjEJoIH542O-2">
          <mxGeometry x="350" y="170" width="120" height="80" as="geometry" />
        </mxCell>
        <mxCell id="e7WYedEtJp9jdQIq0A-c-4" value="" style="endArrow=none;dashed=1;html=1;dashPattern=1 3;strokeWidth=2;rounded=0;" edge="1" parent="J1Hf3Oc52KjEJoIH542O-2" source="e7WYedEtJp9jdQIq0A-c-10" target="scm1Mmv4SYqOX-3d9spi-8">
          <mxGeometry width="50" height="50" relative="1" as="geometry">
            <mxPoint x="490" y="160" as="sourcePoint" />
            <mxPoint x="364" y="115" as="targetPoint" />
          </mxGeometry>
        </mxCell>
        <mxCell id="e7WYedEtJp9jdQIq0A-c-5" value="" style="endArrow=none;dashed=1;html=1;dashPattern=1 3;strokeWidth=2;rounded=0;" edge="1" parent="J1Hf3Oc52KjEJoIH542O-2" source="e7WYedEtJp9jdQIq0A-c-10" target="scm1Mmv4SYqOX-3d9spi-9">
          <mxGeometry width="50" height="50" relative="1" as="geometry">
            <mxPoint x="490" y="260" as="sourcePoint" />
            <mxPoint x="374" y="125" as="targetPoint" />
          </mxGeometry>
        </mxCell>
        <mxCell id="XhrBIPnR7uGEBVEJ_C42-5" value="Gestion de lote" style="ellipse;whiteSpace=wrap;html=1;" parent="J1Hf3Oc52KjEJoIH542O-2" vertex="1">
          <mxGeometry x="140" y="320" width="110" height="80" as="geometry" />
        </mxCell>
        <mxCell id="e7WYedEtJp9jdQIq0A-c-6" value="" style="endArrow=none;dashed=1;html=1;dashPattern=1 3;strokeWidth=2;rounded=0;" edge="1" parent="J1Hf3Oc52KjEJoIH542O-2" source="XhrBIPnR7uGEBVEJ_C42-5" target="scm1Mmv4SYqOX-3d9spi-1">
          <mxGeometry width="50" height="50" relative="1" as="geometry">
            <mxPoint x="276" y="195" as="sourcePoint" />
            <mxPoint x="384" y="135" as="targetPoint" />
          </mxGeometry>
        </mxCell>
        <mxCell id="scm1Mmv4SYqOX-3d9spi-2" value="Baja" style="ellipse;whiteSpace=wrap;html=1;" parent="J1Hf3Oc52KjEJoIH542O-2" vertex="1">
          <mxGeometry x="570" y="410" width="100" height="80" as="geometry" />
        </mxCell>
        <mxCell id="e7WYedEtJp9jdQIq0A-c-7" value="" style="endArrow=none;dashed=1;html=1;dashPattern=1 3;strokeWidth=2;rounded=0;" edge="1" parent="J1Hf3Oc52KjEJoIH542O-2" source="e7WYedEtJp9jdQIq0A-c-12" target="scm1Mmv4SYqOX-3d9spi-2">
          <mxGeometry width="50" height="50" relative="1" as="geometry">
            <mxPoint x="470" y="440" as="sourcePoint" />
            <mxPoint x="394" y="145" as="targetPoint" />
          </mxGeometry>
        </mxCell>
        <mxCell id="e7WYedEtJp9jdQIq0A-c-12" value="Visualizar Lote" style="ellipse;whiteSpace=wrap;html=1;" vertex="1" parent="J1Hf3Oc52KjEJoIH542O-2">
          <mxGeometry x="345" y="390" width="120" height="80" as="geometry" />
        </mxCell>
        <mxCell id="e7WYedEtJp9jdQIq0A-c-14" value="" style="endArrow=none;dashed=1;html=1;dashPattern=1 3;strokeWidth=2;rounded=0;" edge="1" parent="J1Hf3Oc52KjEJoIH542O-2" source="XhrBIPnR7uGEBVEJ_C42-5" target="e7WYedEtJp9jdQIq0A-c-12">
          <mxGeometry width="50" height="50" relative="1" as="geometry">
            <mxPoint x="474" y="445" as="sourcePoint" />
            <mxPoint x="580" y="455" as="targetPoint" />
          </mxGeometry>
        </mxCell>
        <mxCell id="XhrBIPnR7uGEBVEJ_C42-8" value="Asignar a Camion" style="ellipse;whiteSpace=wrap;html=1;" parent="J1Hf3Oc52KjEJoIH542O-2" vertex="1">
          <mxGeometry x="135" y="630" width="120" height="80" as="geometry" />
        </mxCell>
        <mxCell id="e7WYedEtJp9jdQIq0A-c-3" value="" style="endArrow=none;dashed=1;html=1;dashPattern=1 3;strokeWidth=2;rounded=0;" edge="1" parent="1" source="XhrBIPnR7uGEBVEJ_C42-6" target="scm1Mmv4SYqOX-3d9spi-7">
          <mxGeometry width="50" height="50" relative="1" as="geometry">
            <mxPoint x="500" y="800" as="sourcePoint" />
            <mxPoint x="550" y="750" as="targetPoint" />
          </mxGeometry>
        </mxCell>
        <mxCell id="e7WYedEtJp9jdQIq0A-c-9" value="" style="endArrow=none;html=1;rounded=0;" edge="1" parent="1" source="XhrBIPnR7uGEBVEJ_C42-1" target="e7WYedEtJp9jdQIq0A-c-8">
          <mxGeometry width="50" height="50" relative="1" as="geometry">
            <mxPoint x="60" y="782" as="sourcePoint" />
            <mxPoint x="233" y="859" as="targetPoint" />
          </mxGeometry>
        </mxCell>
        <mxCell id="e7WYedEtJp9jdQIq0A-c-11" value="" style="endArrow=none;dashed=1;html=1;dashPattern=1 3;strokeWidth=2;rounded=0;" edge="1" parent="1" source="XhrBIPnR7uGEBVEJ_C42-6" target="e7WYedEtJp9jdQIq0A-c-10">
          <mxGeometry width="50" height="50" relative="1" as="geometry">
            <mxPoint x="327" y="625" as="sourcePoint" />
            <mxPoint x="443" y="565" as="targetPoint" />
          </mxGeometry>
        </mxCell>
        <mxCell id="e7WYedEtJp9jdQIq0A-c-15" value="" style="endArrow=none;html=1;rounded=0;" edge="1" parent="1" source="XhrBIPnR7uGEBVEJ_C42-1" target="XhrBIPnR7uGEBVEJ_C42-8">
          <mxGeometry width="50" height="50" relative="1" as="geometry">
            <mxPoint x="60" y="790" as="sourcePoint" />
            <mxPoint x="241" y="967" as="targetPoint" />
          </mxGeometry>
        </mxCell>
      </root>
    </mxGraphModel>
  </diagram>
</mxfile>
